<svg width="122" height="32" viewBox="0 0 122 32" fill="none" xmlns="http://www.w3.org/2000/svg">
<path fill-rule="evenodd" clip-rule="evenodd" d="M33.2354 3.42299L15.9376 15.9915L33.2354 28.5599V3.42299ZM15.8101 15.9999C15.8101 9.0539 8.73169 3.42304 -3.62396e-05 3.42303V28.5768C8.73169 28.5768 15.8101 22.9459 15.8101 15.9999Z" fill="white"/>
<path d="M40.6656 14V4.49075H47.4141C52.8973 4.49075 54.2777 6.75303 54.2777 8.98975V9.37319C54.2777 11.5332 53.089 14 47.4269 14H40.6656ZM44.2955 6.98309V11.4821H46.9923C50.1621 11.4821 50.5072 10.0889 50.5072 9.25815V9.18147C50.5072 8.35069 50.1621 6.98309 46.9923 6.98309H44.2955ZM55.1444 14V4.49075H60.1291L63.0432 9.83331L66.0085 4.49075H70.7886V14H67.1971V8.0695L63.8612 14H62.0079L58.6848 8.0695V14H55.1444ZM75.6367 4.49075V14H72.0196V4.49075H75.6367ZM80.6713 14V7.08534H76.5686V4.49075H88.404V7.08534H84.3012V14H80.6713ZM92.9741 6.80415V8.44015H97.1408C97.946 8.44015 98.24 8.08228 98.24 7.62215V7.60937C98.24 7.16203 97.9588 6.80415 97.1408 6.80415H92.9741ZM92.9741 10.7408V14H89.3442V4.49075H97.9844C100.758 4.49075 101.985 5.38543 101.985 6.93197V7.07256C101.985 8.45294 100.783 9.02809 100.068 9.19425C101.244 9.46265 102.023 10.2295 102.023 11.4565V12.8625C102.023 13.5271 102.113 13.7699 102.202 13.9361V14H98.4956C98.4061 13.8977 98.3806 13.7699 98.3806 13.5015V12.3896C98.3806 11.3032 97.8821 10.7408 96.4506 10.7408H92.9741ZM106.641 4.49075V14H103.024V4.49075H106.641ZM112.2 14V10.4212L106.998 4.49075H111.344L114.117 7.77553L116.942 4.49075H120.917L115.83 10.4468V14H112.2ZM44.5448 30H40.7017V19.932H44.5448V23.9105L49.4976 19.932H54.2745L48.415 24.5059L54.464 30H49.457L44.5448 25.4938V30ZM54.4825 24.736V19.932H58.3391V24.4383C58.3391 25.6697 58.8804 27.1447 61.4245 27.1447C63.928 27.1447 64.4963 25.6697 64.4963 24.4383V19.932H68.3395V24.736C68.3395 26.6846 67.4057 30.1624 61.7087 30.1624H61.1674C55.3079 30.1624 54.4825 26.6846 54.4825 24.736ZM69.3478 19.932H81.3238V21.9754L74.7201 27.253H81.3915V30H69.2666V27.9431L75.6809 22.5843H69.3478V19.932ZM82.4349 30V19.932H87.7124L90.7978 25.5885L93.9373 19.932H98.9983V30H95.1958V23.721L91.6639 30H89.7017L86.1833 23.721V30H82.4349ZM104.131 19.932V30H100.302V19.932H104.131ZM105.429 19.932H109.732L115.578 25.6562V19.932H119.394V30H115.551L109.245 23.897V30H105.429V19.932Z" fill="white"/>
</svg>
