<svg width="40" height="41" viewBox="0 0 40 41" fill="none" xmlns="http://www.w3.org/2000/svg">
<path d="M17.285 19.882C17.9187 19.5594 18.4029 19.1943 18.7317 18.8049C19.3175 18.099 19.6045 17.168 19.6045 16.0057C19.6045 14.8799 19.3175 13.9124 18.7376 13.1091C17.7752 11.7947 16.1432 11.1193 13.8357 11.0828H4.69531V30.0747H13.2199C14.1824 30.0747 15.0672 29.9895 15.8921 29.8191C16.7171 29.6487 17.4285 29.3262 18.0263 28.8637C18.5643 28.4621 19.0067 27.9631 19.3653 27.3728C19.9273 26.4783 20.2082 25.4682 20.2082 24.3424C20.2082 23.2532 19.9631 22.3221 19.4729 21.5615C18.9768 20.7947 18.2534 20.2349 17.285 19.882ZM8.46743 14.3809H12.5863C13.489 14.3809 14.2362 14.4783 14.8221 14.6791C15.4976 14.9651 15.8383 15.5493 15.8383 16.4377C15.8383 17.2349 15.5813 17.7887 15.0672 18.1051C14.553 18.4215 13.8835 18.5736 13.0645 18.5736H8.46743V14.3809ZM14.9775 26.4418C14.5232 26.667 13.8835 26.7765 13.0585 26.7765H8.46743V21.7136H13.1243C13.9373 21.7197 14.565 21.8292 15.0193 22.03C15.8204 22.4012 16.2209 23.0767 16.2209 24.0686C16.2209 25.243 15.8084 26.028 14.9775 26.4418Z" fill="white"/>
<path d="M32.3615 11.9652H24.2553V14.3262H32.3615V11.9652Z" fill="white"/>
<path d="M35.1772 21.2998C35.0098 20.1984 34.6391 19.2308 34.0593 18.3971C33.4256 17.4478 32.6245 16.7602 31.6442 16.3221C30.6697 15.884 29.5758 15.6649 28.3563 15.6649C26.3058 15.6649 24.6439 16.316 23.3586 17.6122C22.0734 18.9083 21.4337 20.7765 21.4337 23.2105C21.4337 25.8089 22.1451 27.6832 23.5679 28.8333C24.9906 29.9834 26.6286 30.5615 28.4937 30.5615C30.7475 30.5615 32.505 29.8799 33.7544 28.5168C34.5554 27.6588 35.0098 26.8069 35.1114 25.9793H31.3751C31.1599 26.3931 30.9089 26.7095 30.6219 26.9468C30.1018 27.3728 29.4263 27.5919 28.5954 27.5919C27.8063 27.5919 27.1367 27.4154 26.5748 27.0625C25.6542 26.4965 25.17 25.5107 25.1102 24.099H35.3027C35.3146 22.8698 35.2728 21.9387 35.1772 21.2998ZM25.1999 21.6588C25.3314 20.746 25.6602 20.0219 26.1743 19.4864C26.6884 18.9509 27.4237 18.6831 28.3563 18.6831C29.2171 18.6831 29.9404 18.9326 30.5263 19.4377C31.1061 19.9489 31.4349 20.6852 31.5007 21.6588H25.1999Z" fill="white"/>
</svg>
