<svg width="40" height="41" viewBox="0 0 40 41" fill="none" xmlns="http://www.w3.org/2000/svg">
<path d="M9.96747 32.3529C8.81656 32.3529 7.8448 31.9566 7.05219 31.164C6.25958 30.3714 5.86328 29.3996 5.86328 28.2487V13.3954C5.86328 12.2445 6.25958 11.2728 7.05219 10.4802C7.8448 9.68756 8.81656 9.29126 9.96747 9.29126H30.0324C31.1833 9.29126 32.155 9.68756 32.9476 10.4802C33.7403 11.2728 34.1366 12.2445 34.1366 13.3954V28.2487C34.1366 29.3996 33.7403 30.3714 32.9476 31.164C32.155 31.9566 31.1833 32.3529 30.0324 32.3529H9.96747ZM19.9999 23.5256L30.0324 17.011V13.3954L19.9999 19.91L9.96747 13.3954V17.011L19.9999 23.5256Z" fill="white"/>
</svg>
