<svg width="40" height="41" viewBox="0 0 40 41" fill="none" xmlns="http://www.w3.org/2000/svg">
<path d="M8.41473 19.4333L24.1452 13.0224C25.6939 12.3561 30.9616 10.214 30.9616 10.214C30.9616 10.214 33.3856 9.27623 33.1888 11.5465C33.1163 12.4843 32.5828 15.7589 32.0389 19.2949L30.3504 29.78C30.3504 29.78 30.2209 31.3122 29.071 31.5839C27.9211 31.8503 26.0306 30.646 25.6991 30.3796C25.4297 30.1797 20.6386 27.1715 18.8827 25.7059C18.4114 25.3062 17.8675 24.5016 18.9552 23.5638C21.3793 21.3602 24.2902 18.6236 26.0409 16.8812C26.849 16.0818 27.6622 14.2113 24.2902 16.4815L14.7701 22.8361C14.7701 22.8361 13.6928 23.5023 11.6623 22.9078C9.63712 22.3082 7.27521 21.5037 7.27521 21.5037C7.27521 21.5037 5.64882 20.4992 8.41473 19.4333Z" fill="white"/>
</svg>
