<svg width="40" height="41" viewBox="0 0 40 41" fill="none" xmlns="http://www.w3.org/2000/svg">
<path fill-rule="evenodd" clip-rule="evenodd" d="M25.0271 34.2537C21.7054 34.2537 16.9803 34.0863 13.8292 34.0863C7.93576 34.0863 6.33606 30.6005 6.33606 26.1683C6.33606 21.7362 6.42296 16.8341 6.42296 15.1539C6.42296 10.1746 8.62778 7.40969 14.0931 7.40969C16.1145 7.40969 23.7171 7.39038 26.3049 7.39038C31.2778 7.39038 33.6629 9.44391 33.6629 15.4565C33.6629 16.9403 33.5534 19.718 33.5534 27.4204C33.5534 32.2645 31.2649 34.2537 25.0271 34.2537ZM30.177 17.0304L26.7587 14.5971L21.7311 20.1397L21.8856 15.2151L17.1992 15.1378L17.7464 16.9371L17.8558 22.4089C16.1499 22.1127 14.0706 17.8351 14.2026 15.3277L9.73823 15.3889C10.8262 24.2113 17.3473 28.4954 21.509 27.8903L21.6088 24.633C21.9307 24.4785 22.3684 24.2403 22.8963 23.9249L25.9058 27.8742L30.8562 27.6071L26.115 21.6235C27.7067 20.3194 29.0792 18.7688 30.1802 17.0304H30.177Z" fill="white"/>
</svg>
