<svg width="19" height="18" viewBox="0 0 19 18" fill="none" xmlns="http://www.w3.org/2000/svg">
<path fill-rule="evenodd" clip-rule="evenodd" d="M4.83175 8.84802L7.54975 11.022C7.54975 11.022 11.5497 11.124 14.4777 11.124C20.6297 11.124 20.3517 2.21802 14.5757 2.21802C13.6129 2.19261 12.6702 2.49672 11.9037 3.08002C11.2457 1.56402 9.83175 0.400024 7.68375 0.400024C2.79975 0.400024 1.88975 6.50402 4.83175 8.84802ZM14.6177 5.57802C16.0317 5.57802 16.1017 7.76402 14.5937 7.76402C13.2157 7.76402 13.2077 5.57802 14.6177 5.57802ZM7.72575 3.97802C9.14175 3.97802 9.20975 6.16202 7.70175 6.16202C6.32375 6.16402 6.31575 3.98202 7.72575 3.98202V3.97802ZM6.76175 17.456L15.1377 17.306L15.1617 14.164L17.1797 14.198L17.2217 12.252L6.78775 11.964L6.76175 17.456ZM0.961748 17.234L5.86575 15.268V13.04L0.843746 10.714L0.961748 17.234Z" fill="white"/>
</svg>
