<svg width="57" height="54" viewBox="0 0 57 54" fill="none" xmlns="http://www.w3.org/2000/svg">
<path fill-rule="evenodd" clip-rule="evenodd" d="M44.48 26.7467L35.9471 33.6297C35.9471 33.6297 23.3894 33.9526 14.1972 33.9526C-5.11645 33.9526 -4.24369 5.75586 13.8896 5.75586C16.9124 5.67541 19.8718 6.63823 22.2781 8.48499C24.3438 3.68527 28.7829 0 35.5264 0C50.8593 0 53.7162 19.3255 44.48 26.7467ZM13.7577 16.3938C9.31858 16.3938 9.09882 23.3147 13.8331 23.3147C18.1592 23.3147 18.1843 16.3938 13.7577 16.3938ZM35.3946 11.3281C30.9491 11.3281 30.7357 18.2427 35.4699 18.2427C39.796 18.2491 39.8211 11.3408 35.3946 11.3408V11.3281ZM38.4209 54L12.1252 53.5251L12.0499 43.5774L5.71453 43.685L5.58268 37.5239L38.3393 36.6121L38.4209 54ZM56.6295 53.2971L41.2339 47.0727V40.0188L57 32.6545L56.6295 53.2971Z" fill="url(#paint0_linear_2319_168)"/>
<defs>
<linearGradient id="paint0_linear_2319_168" x1="12" y1="6.49748e-07" x2="49.1569" y2="55.8902" gradientUnits="userSpaceOnUse">
<stop stop-color="#FF684D"/>
<stop offset="1" stop-color="#CF4C34"/>
</linearGradient>
</defs>
</svg>
