<svg width="18" height="17" viewBox="0 0 18 17" fill="none" xmlns="http://www.w3.org/2000/svg">
<path fill-rule="evenodd" clip-rule="evenodd" d="M8.18039 16.052C9.08539 16.0584 9.98703 15.9413 10.8604 15.704L17.4004 15.814L17.3864 13.906L14.1324 13.852C18.6364 9.452 16.4544 0 8.36039 0C-2.14561 0 -2.07961 16.052 8.18039 16.052ZM12.1244 4.944C14.6924 4.256 15.8624 8.13 13.1244 8.864C10.6304 9.534 9.56639 5.63 12.1244 4.944ZM4.72439 11.116C2.22639 11.786 1.16439 7.882 3.72439 7.196C6.28439 6.51 7.45639 10.388 4.72039 11.116H4.72439ZM6.79439 1.866C9.36239 1.188 10.5324 5.054 7.79839 5.788C5.30039 6.456 4.23639 2.552 6.79439 1.866ZM8.44839 6.934C9.88439 6.934 9.95439 9.12 8.42439 9.12C7.02839 9.12 7.01839 6.934 8.44839 6.934ZM9.03439 10.226C11.6024 9.538 12.7724 13.412 10.0344 14.146C7.54639 14.814 6.47639 10.912 9.03439 10.226Z" fill="white"/>
</svg>
