<svg width="19" height="14" viewBox="0 0 19 14" fill="none" xmlns="http://www.w3.org/2000/svg">
<path fill-rule="evenodd" clip-rule="evenodd" d="M19 11.1028L15.8479 11.5666C15.8479 11.7648 15.8479 11.9558 15.8479 12.1359C15.8479 13.0907 15.2638 13.5599 14.5777 13.569C11.0306 13.6163 4.55392 13.8218 1.3888 13.8218C0.593345 13.8218 0.139065 13.3144 0.139065 12.4068C0.139065 11.0883 0 1.61655 0 1.61655L5.74802 1.48196L6.40627 2.43677L17.2329 0.821777L19 11.1028ZM6.99405 3.2952L7.24066 3.65893L15.7477 3.63165C15.7477 3.63165 15.8145 7.5964 15.8349 10.6045L17.7818 10.3335L16.367 1.89662L6.99405 3.2952Z" fill="white"/>
</svg>
