<svg width="12" height="21" viewBox="0 0 12 21" fill="none" xmlns="http://www.w3.org/2000/svg">
<path fill-rule="evenodd" clip-rule="evenodd" d="M8.64826 14.3347C7.43354 14.3347 4.49489 14.3193 3.33129 14.3193C2.71779 14.3193 2.29857 14.0626 2.29857 13.5908C2.29857 12.1207 0 9.65872 0 7.44691C0 -1.56494 12 -1.159 12 7.30208C12 9.76844 9.73006 12.599 9.73006 13.5535C9.7362 14.0802 9.27812 14.3347 8.64826 14.3347ZM9.22086 15.3506C9.22086 15.3506 9.17587 16.7923 9.17178 17.433C9.17178 18.3107 7.88548 19.4408 7.33129 19.5373C7.21268 21.2444 4.85276 21.2554 4.76892 19.5373C4.37628 19.4517 2.90389 18.4599 2.91002 17.4637C2.91002 16.7286 2.95092 15.3726 2.95092 15.3726L9.22086 15.3506Z" fill="white"/>
</svg>
