<svg width="22" height="18" viewBox="0 0 22 18" fill="none" xmlns="http://www.w3.org/2000/svg">
<path fill-rule="evenodd" clip-rule="evenodd" d="M3.47991 13.04L2.27991 12.624C0.327909 13.154 -0.0940895 15.9 1.44191 17.624C1.55991 16.024 4.99991 15.832 3.47991 13.04ZM7.89991 0.664024L7.25591 0.400024C7.25591 0.400024 2.73191 8.60003 2.49991 11.442L4.08191 12.042C5.81791 9.86802 7.89991 0.664024 7.89991 0.664024ZM5.69991 13C6.84991 15.544 9.24191 17.476 12.8619 17.476C24.4779 17.476 23.9519 0.876025 13.0479 0.876025C12.6717 0.875551 12.2957 0.89692 11.9219 0.940025C9.24591 1.42002 8.86791 3.44202 9.38591 5.24602C10.1079 7.76202 10.1679 8.96603 7.99591 9.00803L6.99591 9.02003L5.69991 13ZM15.1219 14.986C14.9005 14.9016 14.6981 14.774 14.5266 14.6105C14.3551 14.447 14.2178 14.251 14.1228 14.0339C14.0279 13.8168 13.9771 13.583 13.9735 13.3461C13.9699 13.1092 14.0136 12.8739 14.1019 12.654C14.3939 11.854 15.2479 11.518 15.8259 11.748C16.0125 11.8157 16.1795 11.9285 16.3118 12.0765C16.444 12.2245 16.5376 12.403 16.5839 12.596C16.6048 12.7518 16.5888 12.9103 16.537 13.0586C16.4852 13.207 16.3992 13.3411 16.2859 13.45C15.9339 13.796 15.1039 13.288 15.5839 12.726L15.3839 12.55C15.2021 12.6341 15.0521 12.7743 14.9559 12.95C14.7139 13.432 14.9559 13.978 15.5339 14.194C16.3339 14.49 16.9719 13.794 17.2239 13.298L17.8239 13.632C17.3579 14.874 16.3379 15.47 15.1219 14.986ZM18.0959 9.06402C18.5219 9.31402 18.2439 10.248 17.5779 9.93002C17.5499 9.98602 17.4939 10.104 17.4599 10.17C17.5903 10.3244 17.7671 10.4324 17.9639 10.478C18.4919 10.586 18.9639 10.218 19.0179 9.59602C19.0959 8.74402 18.2579 8.31202 17.7139 8.19602L17.8839 7.54002C19.1939 7.66002 20.0339 8.49402 19.8839 9.79002C19.8608 10.0266 19.7907 10.2561 19.6778 10.4652C19.5649 10.6743 19.4113 10.8588 19.2262 11.0078C19.041 11.1568 18.828 11.2674 18.5996 11.333C18.3711 11.3987 18.1319 11.418 17.8959 11.39C17.0559 11.312 16.4959 10.578 16.5739 9.95803C16.5913 9.76044 16.6574 9.57025 16.7663 9.40446C16.8752 9.23868 17.0235 9.10247 17.1979 9.00803C17.3413 8.94561 17.4975 8.91814 17.6537 8.92787C17.8098 8.93761 17.9613 8.98427 18.0959 9.06402ZM11.8959 4.13002C12.9759 2.60802 14.5879 2.33002 16.1979 3.46802C17.4399 4.36002 17.4359 6.06803 16.6559 7.12203C15.8759 8.17603 14.6219 8.47603 13.4779 7.62803C12.5879 6.97603 12.5499 5.92203 13.1379 5.07803C13.2322 4.93004 13.3548 4.8022 13.4987 4.70188C13.6427 4.60157 13.8051 4.53077 13.9765 4.49358C14.148 4.45639 14.3251 4.45354 14.4977 4.48519C14.6702 4.51685 14.8348 4.58239 14.9819 4.67803C15.1439 4.79255 15.2753 4.94507 15.3645 5.12221C15.4538 5.29936 15.4982 5.49571 15.4939 5.69402C15.4737 5.85003 15.417 5.99907 15.3284 6.12904C15.2398 6.25901 15.1218 6.36625 14.9839 6.44203C14.5539 6.68403 13.9479 5.98803 14.5039 5.60803C14.4719 5.56003 14.4159 5.45402 14.3759 5.39602C14.1889 5.42992 14.0177 5.5232 13.8879 5.66202C13.5499 6.04202 13.6279 6.55002 14.1139 6.88202C14.7819 7.33602 15.3579 7.19602 15.8819 6.49402C16.3379 5.91202 16.3379 4.85202 15.6319 4.31202C14.5399 3.48002 13.4039 3.66402 12.6319 4.71202C12.3119 5.14202 12.0439 5.91203 12.1179 6.33603C11.9719 6.35403 11.6199 6.39002 11.4939 6.39803C11.3221 5.61937 11.4644 4.8044 11.8899 4.13002H11.8959ZM10.0459 10.642C11.8459 10.136 12.7099 12.864 10.7839 13.402C9.01991 13.894 8.23991 11.144 10.0399 10.642H10.0459Z" fill="white"/>
</svg>
