<svg width="57" height="57" viewBox="0 0 57 57" fill="none" xmlns="http://www.w3.org/2000/svg">
<path fill-rule="evenodd" clip-rule="evenodd" d="M49.5474 56.9762C44.7012 57.0496 12.7843 56.9361 8.16476 56.8693C3.54521 56.8026 1.57207 54.3189 1.57207 50.58C1.57207 48.6371 1.50541 31.8053 1.46541 22.4914H1.37876C1.37876 22.4914 0.592167 20.1279 0.305528 19.0396C-0.661044 15.4276 0.598833 12.5232 5.04507 11.2547L10.3779 9.78583L21.5368 16.9165L13.5576 19.1197L17.1106 22.7585H17.2239L11.4711 31.0308L21.4701 31.3446L28.2295 22.8653L37.6152 22.9521L31.5558 31.6317L41.8815 31.9589L49.5541 23.0322L56.7467 23.099C56.7467 23.099 57 47.8025 57 51.2209C56.98 55.0533 54.3936 56.896 49.5474 56.9762ZM6.49159 14.5396C3.23857 14.5396 3.08526 19.4736 6.55159 19.4736C9.71128 19.4736 9.73128 14.5396 6.49159 14.5396ZM41.7548 1.29985C43.2213 0.905929 44.3546 0.63219 44.9878 0.451922C49.6541 -0.729839 52.6671 0.385154 53.6537 4.04394C53.7936 4.56472 54.6669 7.71608 54.6669 7.71608L50.8273 8.78434L41.7548 1.29985ZM21.0435 6.88818L31.7825 3.97717L41.3882 11.4016L31.3892 14.179L21.0435 6.88818Z" fill="url(#paint0_linear_2319_165)"/>
<defs>
<linearGradient id="paint0_linear_2319_165" x1="12" y1="6.85846e-07" x2="52" y2="57" gradientUnits="userSpaceOnUse">
<stop stop-color="#FF684D"/>
<stop offset="1" stop-color="#CF4C34"/>
</linearGradient>
</defs>
</svg>
